<svg width="40" height="40" viewBox="0 0 40 40" fill="none" xmlns="http://www.w3.org/2000/svg">
<circle cx="20" cy="20" r="20" fill="#FAFAFD"/>
<path d="M28.2984 15.6331C28.3116 15.8233 28.3116 16.0135 28.3116 16.2037C28.3116 22.0053 24.0071 28.6901 16.1397 28.6901C13.7159 28.6901 11.4643 27.97 9.57031 26.72C9.91469 26.7608 10.2458 26.7744 10.6034 26.7744C12.6033 26.7744 14.4444 26.0815 15.9145 24.8994C14.0338 24.8586 12.4577 23.595 11.9146 21.8559C12.1795 21.8966 12.4444 21.9238 12.7226 21.9238C13.1067 21.9238 13.4908 21.8694 13.8484 21.7744C11.8882 21.3667 10.4179 19.6005 10.4179 17.4673V17.413C10.9874 17.7391 11.6497 17.9429 12.3517 17.97C11.1994 17.1819 10.4444 15.8369 10.4444 14.3151C10.4444 13.4999 10.6563 12.7526 11.0272 12.1004C13.1331 14.7635 16.2986 16.5026 19.8482 16.6928C19.782 16.3667 19.7422 16.0271 19.7422 15.6874C19.7422 13.2689 21.6495 11.2988 24.0203 11.2988C25.252 11.2988 26.3646 11.8287 27.146 12.6847C28.1129 12.4945 29.04 12.1276 29.8612 11.6249C29.5433 12.644 28.8678 13.4999 27.9804 14.0434C28.8414 13.9483 29.6758 13.7037 30.444 13.3641C29.8613 14.2336 29.1328 15.008 28.2984 15.6331Z" fill="black"/>
</svg>
