<svg width="40" height="40" viewBox="0 0 40 40" fill="none" xmlns="http://www.w3.org/2000/svg">
<path d="M0 20C0 8.95105 8.95105 0 20 0C31.049 0 40 8.95105 40 20C40 31.049 31.049 40 20 40C8.95105 39.9767 0 31.0256 0 20Z" fill="#FAFAFD"/>
<path d="M29.009 11.8661C27.3074 11.0968 25.5359 10.5374 23.6944 10.2344C23.4613 10.654 23.2049 11.1901 23.0184 11.633C21.0603 11.3299 19.079 11.3299 17.1209 11.633C16.9111 11.1435 16.678 10.6773 16.4216 10.2344C14.5801 10.5374 12.7853 11.0968 11.107 11.8894C7.75031 16.901 6.84122 21.7728 7.28411 26.598C9.26546 28.0665 11.4566 29.1854 13.8109 29.8847C14.347 29.1621 14.8132 28.4162 15.2095 27.6236C14.4403 27.3439 13.7177 26.9943 13.0184 26.5747C13.2049 26.4348 13.368 26.295 13.5545 26.1551C17.6804 28.1132 22.4822 28.1132 26.6081 26.1551C26.7946 26.295 26.9578 26.4348 27.1442 26.5747C26.4449 26.9943 25.699 27.3439 24.9298 27.6236C25.3261 28.4162 25.7923 29.1621 26.3284 29.8847C28.6827 29.1621 30.8972 28.0665 32.8552 26.598C33.368 21.0036 31.9228 16.1551 29.009 11.8661ZM15.769 23.6143C14.4869 23.6143 13.4613 22.4488 13.4613 21.0269C13.4613 19.605 14.4869 18.4162 15.769 18.4162C17.0743 18.4162 18.1 19.5817 18.1 21.0269C18.0767 22.4488 17.0743 23.6143 15.769 23.6143ZM24.347 23.6143C23.065 23.6143 22.0394 22.4488 22.0394 21.0269C22.0394 19.605 23.065 18.4162 24.347 18.4162C25.6524 18.4162 26.678 19.5817 26.6547 21.0269C26.6314 22.4721 25.6291 23.6143 24.347 23.6143Z" fill="black"/>
</svg>
